<mxfile host="app.diagrams.net" modified="2022-10-14T16:04:53.925Z" agent="5.0 (Windows NT 10.0; Win64; x64) AppleWebKit/537.36 (KHTML, like Gecko) Chrome/106.0.0.0 Safari/537.36 Edg/106.0.1370.42" etag="Zn4AALNptuPw66Zdpnhi" version="20.4.1" type="github">
  <diagram id="1h1QksGQQfmu-8qXDgOc" name="Page-1">
    <mxGraphModel dx="1161" dy="771" grid="0" gridSize="10" guides="1" tooltips="1" connect="1" arrows="1" fold="1" page="1" pageScale="1" pageWidth="827" pageHeight="1169" math="0" shadow="0">
      <root>
        <mxCell id="0" />
        <mxCell id="1" parent="0" />
        <mxCell id="UQhafPBwoPOySEA5cZhY-1" value="&lt;font style=&quot;font-size: 18px;&quot;&gt;three.js&lt;/font&gt;" style="rounded=1;whiteSpace=wrap;html=1;fillColor=#fff2cc;strokeColor=#d6b656;fontColor=#000000;" parent="1" vertex="1">
          <mxGeometry x="354" y="198" width="120" height="60" as="geometry" />
        </mxCell>
        <mxCell id="UQhafPBwoPOySEA5cZhY-3" value="&lt;font style=&quot;font-size: 18px;&quot;&gt;Canvas&lt;/font&gt;" style="rounded=1;whiteSpace=wrap;html=1;fillColor=#fff2cc;strokeColor=#d6b656;fontColor=#000000;" parent="1" vertex="1">
          <mxGeometry x="267" y="296" width="120" height="60" as="geometry" />
        </mxCell>
        <mxCell id="UQhafPBwoPOySEA5cZhY-4" value="&lt;span style=&quot;font-size: 18px;&quot;&gt;WebGL&lt;/span&gt;" style="rounded=1;whiteSpace=wrap;html=1;fillColor=#fff2cc;strokeColor=#d6b656;fontColor=#000000;" parent="1" vertex="1">
          <mxGeometry x="188" y="392" width="120" height="60" as="geometry" />
        </mxCell>
        <mxCell id="UQhafPBwoPOySEA5cZhY-6" value="" style="rounded=1;whiteSpace=wrap;html=1;fontSize=18;fontColor=#333333;fillColor=#f5f5f5;strokeColor=#666666;" parent="1" vertex="1">
          <mxGeometry x="83" y="484.75" width="248" height="90.5" as="geometry" />
        </mxCell>
        <mxCell id="UQhafPBwoPOySEA5cZhY-5" value="&lt;span style=&quot;font-size: 18px;&quot;&gt;OpenGL ES2.0&lt;/span&gt;" style="rounded=1;whiteSpace=wrap;html=1;fillColor=#fff2cc;strokeColor=#d6b656;fontColor=#000000;" parent="1" vertex="1">
          <mxGeometry x="178.5" y="500" width="139" height="60" as="geometry" />
        </mxCell>
        <mxCell id="UQhafPBwoPOySEA5cZhY-7" value="OpenGL" style="text;html=1;strokeColor=none;fillColor=none;align=center;verticalAlign=middle;whiteSpace=wrap;rounded=0;fontSize=18;fontColor=#000000;" parent="1" vertex="1">
          <mxGeometry x="100" y="515" width="60" height="30" as="geometry" />
        </mxCell>
        <mxCell id="UQhafPBwoPOySEA5cZhY-9" value="&lt;font style=&quot;font-size: 18px;&quot;&gt;Javascript&lt;/font&gt;" style="rounded=1;whiteSpace=wrap;html=1;fillColor=#f5f5f5;strokeColor=#666666;fontColor=#333333;" parent="1" vertex="1">
          <mxGeometry x="447" y="296" width="120" height="60" as="geometry" />
        </mxCell>
        <mxCell id="UQhafPBwoPOySEA5cZhY-10" value="&lt;font style=&quot;font-size: 18px;&quot;&gt;Canvas 2D&lt;/font&gt;" style="rounded=1;whiteSpace=wrap;html=1;fillColor=#f5f5f5;strokeColor=#666666;fontColor=#333333;" parent="1" vertex="1">
          <mxGeometry x="354" y="392" width="120" height="60" as="geometry" />
        </mxCell>
        <mxCell id="UQhafPBwoPOySEA5cZhY-11" value="" style="endArrow=none;html=1;rounded=0;fontSize=18;fontColor=#000000;exitX=0.5;exitY=0;exitDx=0;exitDy=0;entryX=0.5;entryY=1;entryDx=0;entryDy=0;" parent="1" source="UQhafPBwoPOySEA5cZhY-5" target="UQhafPBwoPOySEA5cZhY-4" edge="1">
          <mxGeometry width="50" height="50" relative="1" as="geometry">
            <mxPoint x="387" y="391" as="sourcePoint" />
            <mxPoint x="437" y="341" as="targetPoint" />
          </mxGeometry>
        </mxCell>
        <mxCell id="UQhafPBwoPOySEA5cZhY-12" value="" style="endArrow=none;html=1;rounded=0;fontSize=18;fontColor=#000000;exitX=0.5;exitY=1;exitDx=0;exitDy=0;entryX=0.5;entryY=0;entryDx=0;entryDy=0;" parent="1" source="UQhafPBwoPOySEA5cZhY-3" target="UQhafPBwoPOySEA5cZhY-4" edge="1">
          <mxGeometry width="50" height="50" relative="1" as="geometry">
            <mxPoint x="258" y="510" as="sourcePoint" />
            <mxPoint x="258" y="462" as="targetPoint" />
          </mxGeometry>
        </mxCell>
        <mxCell id="UQhafPBwoPOySEA5cZhY-13" value="" style="endArrow=none;html=1;rounded=0;fontSize=18;fontColor=#000000;exitX=0.5;exitY=0;exitDx=0;exitDy=0;entryX=0.5;entryY=1;entryDx=0;entryDy=0;" parent="1" source="UQhafPBwoPOySEA5cZhY-10" target="UQhafPBwoPOySEA5cZhY-3" edge="1">
          <mxGeometry width="50" height="50" relative="1" as="geometry">
            <mxPoint x="268" y="520" as="sourcePoint" />
            <mxPoint x="268" y="472" as="targetPoint" />
          </mxGeometry>
        </mxCell>
        <mxCell id="UQhafPBwoPOySEA5cZhY-14" value="" style="endArrow=none;html=1;rounded=0;fontSize=18;fontColor=#000000;exitX=0.5;exitY=0;exitDx=0;exitDy=0;entryX=0.5;entryY=1;entryDx=0;entryDy=0;" parent="1" source="UQhafPBwoPOySEA5cZhY-3" target="UQhafPBwoPOySEA5cZhY-1" edge="1">
          <mxGeometry width="50" height="50" relative="1" as="geometry">
            <mxPoint x="278" y="530" as="sourcePoint" />
            <mxPoint x="278" y="482" as="targetPoint" />
          </mxGeometry>
        </mxCell>
        <mxCell id="UQhafPBwoPOySEA5cZhY-15" value="" style="endArrow=none;html=1;rounded=0;fontSize=18;fontColor=#000000;exitX=0.5;exitY=0;exitDx=0;exitDy=0;entryX=0.5;entryY=1;entryDx=0;entryDy=0;" parent="1" source="UQhafPBwoPOySEA5cZhY-9" target="UQhafPBwoPOySEA5cZhY-1" edge="1">
          <mxGeometry width="50" height="50" relative="1" as="geometry">
            <mxPoint x="288" y="540" as="sourcePoint" />
            <mxPoint x="288" y="492" as="targetPoint" />
          </mxGeometry>
        </mxCell>
      </root>
    </mxGraphModel>
  </diagram>
</mxfile>
